<?xml version="1.0" standalone="no"?>
<!DOCTYPE svg PUBLIC "-//W3C//DTD SVG 1.1//EN" "http://www.w3.org/Graphics/SVG/1.1/DTD/svg11.dtd">
<svg t="1676947980074" class="icon" viewBox="0 0 1024 1024" version="1.1" xmlns="http://www.w3.org/2000/svg" p-id="2498" xmlns:xlink="http://www.w3.org/1999/xlink" width="200" height="200">
<path d="M609.28 734.208h-471.04c-26.624 0-48.128-21.504-48.128-48.128s21.504-48.128 48.128-48.128h470.016c26.624 0 48.128 21.504 48.128 48.128 1.024 26.624-21.504 48.128-47.104 48.128z m0 0" fill="#1651E5" opacity=".3" p-id="2499"></path>
<path d="M769.024 904.192H95.232c-26.624 0-48.128 21.504-48.128 48.128s21.504 48.128 48.128 48.128h674.816v-96.256z" fill="#1651E5" opacity=".3" p-id="2500"></path>
<path d="M786.432 904.192h40.96v95.232h-40.96z" fill="#1651E5" opacity=".3" p-id="2501"></path><path d="M876.544 904.192h25.6v95.232h-25.6z" fill="#1651E5" opacity=".3" p-id="2502"></path>
<path d="M975.872 904.192h-60.416v95.232h60.416c26.624 0 48.128-21.504 48.128-48.128 0-25.6-21.504-47.104-48.128-47.104z" fill="#1651E5" opacity=".3" p-id="2503"></path>
<path d="M961.536 461.824c-14.336 0-25.6-12.288-25.6-25.6 0-14.336 12.288-25.6 25.6-25.6 14.336 0 25.6 12.288 25.6 25.6 0 14.336-11.264 25.6-25.6 25.6z m0-39.936c-8.192 0-14.336 7.168-14.336 14.336s7.168 14.336 14.336 14.336 14.336-7.168 14.336-14.336-6.144-14.336-14.336-14.336z m0 0" fill="#1651E5" opacity=".3" p-id="2504"></path>
<path d="M278.528 183.296c-8.192 0-15.36-3.072-21.504-8.192-7.168-6.144-11.264-14.336-12.288-22.528-1.024-8.192 2.048-17.408 8.192-24.576 6.144-7.168 14.336-11.264 22.528-12.288 18.432-1.024 34.816 12.288 35.84 30.72 1.024 18.432-12.288 34.816-30.72 35.84 0 1.024-2.048 1.024-2.048 1.024z m0-56.32H276.48c-6.144 1.024-12.288 3.072-16.384 8.192-4.096 5.12-6.144 10.24-5.12 17.408 1.024 7.168 3.072 12.288 8.192 16.384 5.12 4.096 11.264 6.144 17.408 5.12 13.312-1.024 22.528-12.288 21.504-25.6-1.024-13.312-12.288-21.504-23.552-21.504z m0 0" fill="#1651E5" opacity=".3" p-id="2505"></path>
<path d="M55.296 615.424c-3.072 0-6.144-3.072-6.144-6.144V573.44l-25.6 25.6c-2.048 2.048-6.144 2.048-8.192 0-2.048-2.048-2.048-6.144 0-8.192L40.96 565.248H6.144c-3.072 0-6.144-2.048-6.144-5.12s3.072-6.144 6.144-6.144H40.96l-25.6-25.6c-2.048-2.048-2.048-6.144 0-8.192 2.048-2.048 6.144-2.048 8.192 0l25.6 25.6v-35.84c0-3.072 3.072-6.144 6.144-6.144s6.144 3.072 6.144 6.144v35.84l25.6-25.6c2.048-2.048 6.144-2.048 8.192 0 2.048 2.048 2.048 6.144 0 8.192l-25.6 25.6h35.84c3.072 0 6.144 3.072 6.144 6.144s-3.072 6.144-6.144 6.144H69.632l25.6 25.6c2.048 2.048 2.048 6.144 0 8.192-2.048 2.048-6.144 2.048-8.192 0L61.44 573.44v35.84c0 3.072-3.072 6.144-6.144 6.144z m0 0" fill="#1651E5" opacity=".3" p-id="2506"></path>
<path d="M1013.76 718.848h-48.128c-3.072 0-6.144-3.072-6.144-6.144s3.072-6.144 6.144-6.144H1013.76c3.072 0 6.144 3.072 6.144 6.144-1.024 3.072-3.072 6.144-6.144 6.144z m0 0" fill="#1651E5" p-id="2507"></path><path d="M989.184 742.4c-3.072 0-6.144-3.072-6.144-6.144v-48.128c0-3.072 3.072-6.144 6.144-6.144s6.144 3.072 6.144 6.144v48.128c0 3.072-3.072 6.144-6.144 6.144zM494.592 151.552h-48.128c-3.072 0-6.144-3.072-6.144-6.144s3.072-6.144 6.144-6.144h48.128c3.072 0 6.144 3.072 6.144 6.144-1.024 3.072-3.072 6.144-6.144 6.144z" fill="#1651E5" p-id="2508"></path><path d="M470.016 175.104c-3.072 0-6.144-3.072-6.144-6.144v-48.128c0-3.072 3.072-6.144 6.144-6.144s6.144 3.072 6.144 6.144v48.128c-1.024 4.096-3.072 6.144-6.144 6.144z m0 0" fill="#1651E5" p-id="2509"></path>
<path d="M779.264 140.288c0 27.648-19.456 51.2-43.008 51.2 23.552 0 43.008 22.528 43.008 51.2 0-27.648 19.456-51.2 43.008-51.2-23.552 0-43.008-22.528-43.008-51.2z m0 0" fill="#1651E5" opacity=".3" p-id="2510"></path>
<path d="M613.376 75.776c-14.336 0-25.6-12.288-25.6-25.6 0-14.336 12.288-25.6 25.6-25.6 14.336 0 25.6 12.288 25.6 25.6 0 14.336-11.264 25.6-25.6 25.6z m0-40.96c-8.192 0-14.336 7.168-14.336 14.336 0 8.192 7.168 14.336 14.336 14.336 8.192 0 14.336-7.168 14.336-14.336 0-8.192-7.168-14.336-14.336-14.336z m0 0" fill="#1651E5" opacity=".3" p-id="2511"></path>
<path d="M113.664 218.112c0 47.104 31.744 84.992 71.68 84.992-39.936 0-71.68 37.888-71.68 84.992 0-47.104-31.744-84.992-71.68-84.992 39.936 0 71.68-37.888 71.68-84.992z m0 0" fill="#1651E5" opacity=".3" p-id="2512"></path><path d="M102.4 781.312c-11.264 0-20.48-9.216-20.48-20.48s9.216-20.48 20.48-20.48 20.48 9.216 20.48 20.48-9.216 20.48-20.48 20.48z m0-31.744c-6.144 0-11.264 5.12-11.264 11.264 0 6.144 5.12 11.264 11.264 11.264 6.144 0 11.264-5.12 11.264-11.264 0-6.144-5.12-11.264-11.264-11.264z m0 0" fill="#1651E5" opacity=".3" p-id="2513"></path>
<path d="M465.92 514.048c-23.552 0-47.104-5.12-69.632-13.312l-183.296-75.776 183.296-75.776c22.528-9.216 45.056-13.312 69.632-13.312 23.552 0 47.104 5.12 69.632 13.312l183.296 75.776-183.296 75.776c-22.528 9.216-46.08 13.312-69.632 13.312z" fill="#FFFFFF" p-id="2514"></path>
<path d="M465.92 348.16c22.528 0 44.032 4.096 64.512 12.288L686.08 424.96l-155.648 64.512c-20.48 8.192-41.984 12.288-64.512 12.288s-44.032-4.096-64.512-12.288L245.76 424.96l155.648-64.512c20.48-8.192 41.984-12.288 64.512-12.288m0-24.576c-24.576 0-50.176 5.12-73.728 14.336l-209.92 87.04L392.192 512c23.552 10.24 49.152 14.336 73.728 14.336 24.576 0 50.176-5.12 73.728-14.336l209.92-87.04L539.648 337.92c-23.552-9.216-49.152-14.336-73.728-14.336z" fill="#1651E5" p-id="2515"></path><path d="M456.704 495.616l-172.032-70.656 172.032-70.656c38.912-16.384 81.92-16.384 120.832 0l172.032 70.656-172.032 70.656c-38.912 16.384-81.92 16.384-120.832 0z" fill="#1651E5" opacity=".1" p-id="2516"></path><path d="M444.416 900.096l-194.56-88.064c-32.768-14.336-54.272-47.104-54.272-83.968V459.776l194.56 88.064c32.768 14.336 54.272 47.104 54.272 83.968v268.288z" fill="#FFFFFF" p-id="2517"></path>
<path d="M456.704 919.552l-211.968-95.232c-36.864-16.384-61.44-54.272-61.44-95.232V440.32l211.968 95.232c36.864 16.384 61.44 54.272 61.44 95.232v288.768zM207.872 478.208v250.88c0 30.72 18.432 59.392 47.104 72.704l177.152 79.872V630.784c0-30.72-18.432-59.392-47.104-72.704l-177.152-79.872z" fill="#1651E5" p-id="2518"></path>
<path d="M444.416 912.384l-162.816-88.064c-27.648-14.336-45.056-47.104-45.056-83.968V472.064L399.36 559.104c27.648 14.336 45.056 47.104 45.056 83.968v269.312z" fill="#1651E5" opacity=".1" p-id="2519"></path><path d="M473.088 919.552v1.024h1.024c0-1.024 0-1.024-1.024-1.024zM516.096 557.056h33.792l172.032-76.8v76.8h26.624V439.296l-212.992 96.256c-12.288 6.144-23.552 14.336-33.792 23.552 5.12-1.024 9.216-2.048 14.336-2.048z" fill="#1651E5" p-id="2520"></path>
<path d="M845.824 922.624H534.528c-32.768 0-59.392-26.624-59.392-59.392v-225.28c0-32.768 26.624-59.392 59.392-59.392h311.296c32.768 0 59.392 26.624 59.392 59.392v225.28c0 32.768-26.624 59.392-59.392 59.392z" fill="#FFFFFF" p-id="2521"></path>
<path d="M845.824 934.912H534.528c-39.936 0-71.68-31.744-71.68-71.68v-225.28c0-39.936 31.744-71.68 71.68-71.68h311.296c39.936 0 71.68 31.744 71.68 71.68v225.28c0 38.912-31.744 71.68-71.68 71.68zM534.528 589.824c-26.624 0-47.104 21.504-47.104 47.104v225.28c0 26.624 21.504 47.104 47.104 47.104h311.296c26.624 0 47.104-21.504 47.104-47.104v-225.28c0-26.624-21.504-47.104-47.104-47.104H534.528z" fill="#1651E5" p-id="2522"></path>
</svg>