<?xml version="1.0" standalone="no"?><!DOCTYPE svg PUBLIC "-//W3C//DTD SVG 1.1//EN" "http://www.w3.org/Graphics/SVG/1.1/DTD/svg11.dtd"><svg t="1676947939643" class="icon" viewBox="0 0 1024 1024" version="1.1" xmlns="http://www.w3.org/2000/svg" p-id="2168" xmlns:xlink="http://www.w3.org/1999/xlink" width="200" height="200"><path d="M428.032 481.28m-405.504 0a405.504 405.504 0 1 0 811.008 0 405.504 405.504 0 1 0-811.008 0Z" fill="#1750E5" opacity=".1" p-id="2169"></path><path d="M430.08 490.496m-174.08 0a174.08 174.08 0 1 0 348.16 0 174.08 174.08 0 1 0-348.16 0Z" fill="#A3D4FF" p-id="2170"></path><path d="M430.08 675.84c-102.4 0-185.344-82.944-185.344-185.344s82.944-184.32 185.344-184.32 185.344 82.944 185.344 184.32S532.48 675.84 430.08 675.84z m0-348.16c-90.112 0-162.816 72.704-162.816 162.816s72.704 163.84 162.816 163.84S592.896 581.632 592.896 491.52 520.192 327.68 430.08 327.68z" fill="#1750E5" p-id="2171"></path><path d="M228.352 137.216m-121.856 0a121.856 121.856 0 1 0 243.712 0 121.856 121.856 0 1 0-243.712 0Z" fill="#F2F2F2" p-id="2172"></path><path d="M228.352 269.312c-72.704 0-132.096-59.392-132.096-132.096S155.648 5.12 228.352 5.12s132.096 59.392 132.096 132.096-59.392 132.096-132.096 132.096z m0-243.712c-61.44 0-111.616 50.176-111.616 111.616s50.176 111.616 111.616 111.616 111.616-50.176 111.616-111.616S289.792 25.6 228.352 25.6z" fill="#1750E5" p-id="2173"></path><path d="M879.616 515.072m-121.856 0a121.856 121.856 0 1 0 243.712 0 121.856 121.856 0 1 0-243.712 0Z" fill="#F2F2F2" p-id="2174"></path><path d="M879.616 647.168c-72.704 0-132.096-59.392-132.096-132.096 0-72.704 59.392-132.096 132.096-132.096 72.704 0 132.096 59.392 132.096 132.096 1.024 72.704-58.368 132.096-132.096 132.096z m0-243.712c-61.44 0-111.616 50.176-111.616 111.616s50.176 111.616 111.616 111.616 111.616-50.176 111.616-111.616-50.176-111.616-111.616-111.616z" fill="#1750E5" p-id="2175"></path><path d="M200.704 886.784m-121.856 0a121.856 121.856 0 1 0 243.712 0 121.856 121.856 0 1 0-243.712 0Z" fill="#F2F2F2" p-id="2176"></path><path d="M200.704 1018.88c-72.704 0-132.096-59.392-132.096-132.096s59.392-132.096 132.096-132.096 132.096 59.392 132.096 132.096-59.392 132.096-132.096 132.096z m0-242.688c-61.44 0-111.616 50.176-111.616 111.616s50.176 111.616 111.616 111.616 111.616-50.176 111.616-111.616c-1.024-62.464-51.2-111.616-111.616-111.616z" fill="#1750E5" p-id="2177"></path><path d="M267.264 785.408c-2.048 0-4.096 0-5.12-1.024-5.12-3.072-6.144-9.216-3.072-14.336l107.52-180.224c3.072-5.12 9.216-6.144 14.336-3.072 5.12 3.072 6.144 9.216 3.072 14.336L276.48 780.288c-2.048 3.072-5.12 5.12-9.216 5.12zM525.312 516.096c-6.144 0-10.24-4.096-10.24-10.24s4.096-10.24 10.24-10.24l256-3.072c5.12 0 10.24 4.096 10.24 10.24s-4.096 10.24-10.24 10.24l-256 3.072zM364.544 340.992c-4.096 0-7.168-2.048-9.216-5.12l-95.232-164.864c-3.072-5.12-1.024-11.264 4.096-14.336 5.12-3.072 11.264-1.024 14.336 4.096l95.232 164.864c3.072 5.12 1.024 11.264-4.096 14.336-2.048 1.024-4.096 1.024-5.12 1.024z" fill="#1750E5" p-id="2178"></path><path d="M364.544 413.696m-17.408 0a17.408 17.408 0 1 0 34.816 0 17.408 17.408 0 1 0-34.816 0Z" fill="#1750E5" p-id="2179"></path><path d="M120.832 886.784m-17.408 0a17.408 17.408 0 1 0 34.816 0 17.408 17.408 0 1 0-34.816 0Z" fill="#1750E5" p-id="2180"></path><path d="M809.984 475.136m-17.408 0a17.408 17.408 0 1 0 34.816 0 17.408 17.408 0 1 0-34.816 0Z" fill="#1750E5" p-id="2181"></path><path d="M158.72 89.088m-17.408 0a17.408 17.408 0 1 0 34.816 0 17.408 17.408 0 1 0-34.816 0Z" fill="#1750E5" p-id="2182"></path><path d="M647.168 405.504l-16.384-12.288c35.84-50.176 24.576-120.832-25.6-156.672s-120.832-24.576-156.672 25.6l-16.384-12.288c43.008-59.392 126.976-72.704 186.368-29.696 58.368 41.984 71.68 125.952 28.672 185.344z" fill="#CCCCCC" p-id="2183"></path><path d="M520.192 804.864c-46.08 0-90.112-23.552-115.712-65.536l18.432-10.24c15.36 25.6 39.936 44.032 68.608 52.224 28.672 7.168 59.392 3.072 84.992-11.264 53.248-31.744 71.68-100.352 39.936-153.6l18.432-10.24c36.864 63.488 15.36 145.408-48.128 182.272-20.48 11.264-44.032 16.384-66.56 16.384z" fill="#CCCCCC" p-id="2184"></path><path d="M222.208 646.144c-59.392 0-112.64-39.936-129.024-99.328-18.432-70.656 23.552-144.384 94.208-162.816l5.12 20.48C133.12 419.84 97.28 482.304 113.664 541.696c16.384 60.416 77.824 95.232 137.216 79.872l5.12 20.48c-11.264 3.072-22.528 4.096-33.792 4.096z" fill="#CCCCCC" p-id="2185"></path></svg>