<?xml version="1.0" standalone="no"?><!DOCTYPE svg PUBLIC "-//W3C//DTD SVG 1.1//EN" "http://www.w3.org/Graphics/SVG/1.1/DTD/svg11.dtd"><svg t="1676947843347" class="icon" viewBox="0 0 1024 1024" version="1.1" xmlns="http://www.w3.org/2000/svg" p-id="2017" xmlns:xlink="http://www.w3.org/1999/xlink" width="200" height="200"><path d="M507.904 551.936m-348.16 0a348.16 348.16 0 1 0 696.32 0 348.16 348.16 0 1 0-696.32 0Z" fill="#1750E5" opacity=".1" p-id="2018"></path><path d="M507.904 987.136c-137.216 0-263.168-62.464-346.112-171.008-4.096-5.12-3.072-11.264 2.048-15.36 5.12-4.096 11.264-3.072 15.36 2.048C258.048 906.24 378.88 965.632 508.928 965.632c134.144 0 260.096-65.536 337.92-175.104 3.072-5.12 10.24-6.144 15.36-2.048 5.12 3.072 6.144 10.24 2.048 15.36-81.92 114.688-215.04 183.296-356.352 183.296zM933.888 561.152c-6.144 0-10.24-5.12-10.24-10.24 0-166.912-99.328-317.44-252.928-381.952-5.12-2.048-8.192-8.192-6.144-14.336 2.048-5.12 8.192-8.192 14.336-6.144 161.792 68.608 266.24 226.304 266.24 402.432-1.024 5.12-6.144 10.24-11.264 10.24zM93.184 550.912H71.68C71.68 358.4 200.704 185.344 385.024 132.096l6.144 20.48c-175.104 51.2-297.984 215.04-297.984 398.336z" fill="#1750E5" p-id="2019"></path><path d="M525.312 152.576m-104.448 0a104.448 104.448 0 1 0 208.896 0 104.448 104.448 0 1 0-208.896 0Z" fill="#A3D4FF" p-id="2020"></path><path d="M525.312 268.288c-63.488 0-115.712-52.224-115.712-115.712 0-63.488 52.224-115.712 115.712-115.712 63.488 0 115.712 52.224 115.712 115.712 0 63.488-52.224 115.712-115.712 115.712z m0-208.896c-51.2 0-93.184 41.984-93.184 93.184s41.984 93.184 93.184 93.184 93.184-41.984 93.184-93.184-41.984-93.184-93.184-93.184z" fill="#1750E5" p-id="2021"></path><path d="M904.192 677.888m-104.448 0a104.448 104.448 0 1 0 208.896 0 104.448 104.448 0 1 0-208.896 0Z" fill="#A3D4FF" p-id="2022"></path><path d="M904.192 793.6c-63.488 0-115.712-52.224-115.712-115.712s52.224-115.712 115.712-115.712S1019.904 614.4 1019.904 677.888s-52.224 115.712-115.712 115.712z m0-208.896c-51.2 0-93.184 41.984-93.184 93.184s41.984 93.184 93.184 93.184 93.184-41.984 93.184-93.184-41.984-93.184-93.184-93.184z" fill="#1750E5" p-id="2023"></path><path d="M119.808 677.888m-104.448 0a104.448 104.448 0 1 0 208.896 0 104.448 104.448 0 1 0-208.896 0Z" fill="#A3D4FF" p-id="2024"></path><path d="M119.808 793.6C56.32 793.6 4.096 741.376 4.096 677.888s52.224-115.712 115.712-115.712S235.52 614.4 235.52 677.888s-52.224 115.712-115.712 115.712z m0-208.896c-51.2 0-93.184 41.984-93.184 93.184s41.984 93.184 93.184 93.184 93.184-41.984 93.184-93.184-41.984-93.184-93.184-93.184z" fill="#1750E5" p-id="2025"></path><path d="M628.736 348.16L364.544 573.44h120.832L409.6 762.88l266.24-232.448-121.856-3.072z" fill="#A3D4FF" p-id="2026"></path><path d="M381.952 802.816l87.04-217.088H333.824l324.608-276.48-87.04 207.872 134.144 3.072-323.584 282.624z m13.312-240.64H501.76l-64.512 160.768L645.12 540.672l-108.544-2.048 62.464-150.528-203.776 174.08z" fill="#1750E5" p-id="2027"></path></svg>