<?xml version="1.0" standalone="no"?><!DOCTYPE svg PUBLIC "-//W3C//DTD SVG 1.1//EN" "http://www.w3.org/Graphics/SVG/1.1/DTD/svg11.dtd"><svg t="1676971866613" class="icon" viewBox="0 0 1024 1024" version="1.1" xmlns="http://www.w3.org/2000/svg" p-id="32329" xmlns:xlink="http://www.w3.org/1999/xlink" width="200" height="200"><path d="M512 383.2832a73.216 73.216 0 1 1 73.216-73.216 73.3184 73.3184 0 0 1-73.216 73.216z m0-115.6608a42.496 42.496 0 1 0 42.496 42.4448 42.5472 42.5472 0 0 0-42.496-42.4448zM771.8912 383.2832a73.216 73.216 0 1 1 73.1648-73.216 73.2672 73.2672 0 0 1-73.1648 73.216z m0-115.6608a42.496 42.496 0 1 0 42.4448 42.4448 42.496 42.496 0 0 0-42.4448-42.4448z" fill="#3e7bed" p-id="32330"></path><path d="M512 787.0976a15.36 15.36 0 0 1-15.36-15.36V367.9232a15.36 15.36 0 0 1 30.72 0v403.8144a15.36 15.36 0 0 1-15.36 15.36zM656.2304 787.0976a15.36 15.36 0 0 1-15.36-15.36V569.856a15.36 15.36 0 1 1 30.72 0v201.8816a15.36 15.36 0 0 1-15.36 15.36z" fill="#3e7bed" p-id="32331"></path><path d="M771.8912 585.216h-115.6608a15.36 15.36 0 1 1 0-30.72h115.6608a15.36 15.36 0 0 1 0 30.72z" fill="#3e7bed" p-id="32332"></path><path d="M771.584 585.216a15.36 15.36 0 0 1-15.36-15.36V367.9232a15.36 15.36 0 0 1 30.72 0v201.9328a15.36 15.36 0 0 1-15.36 15.36zM252.1088 383.2832a73.216 73.216 0 1 1 73.216-73.216 73.2672 73.2672 0 0 1-73.216 73.216z m0-115.6608a42.496 42.496 0 1 0 42.496 42.4448 42.496 42.496 0 0 0-42.496-42.4448zM367.7696 787.0976a15.36 15.36 0 0 1-15.36-15.36V569.856a15.36 15.36 0 0 1 30.72 0v201.8816a15.36 15.36 0 0 1-15.36 15.36z" fill="#3e7bed" p-id="32333"></path><path d="M367.7696 585.216H252.1088a15.36 15.36 0 1 1 0-30.72h115.6608a15.36 15.36 0 0 1 0 30.72z" fill="#3e7bed" p-id="32334"></path><path d="M252.416 585.216a15.36 15.36 0 0 1-15.36-15.36V367.9232a15.36 15.36 0 0 1 30.72 0v201.9328a15.36 15.36 0 0 1-15.36 15.36z" fill="#3e7bed" p-id="32335"></path></svg>